<svg width="16" height="16" viewBox="0 0 16 16" fill="none" xmlns="http://www.w3.org/2000/svg">
<path d="M14.6726 1.32701C13.9697 0.624069 12.83 0.624069 12.127 1.32701L5.2998 8.15422V10.6998H7.84539L14.6726 3.8726C15.3755 3.16965 15.3755 2.02996 14.6726 1.32701Z" fill="#012BFE"/>
<path fill-rule="evenodd" clip-rule="evenodd" d="M0.799805 4.3998C0.799805 3.40569 1.60569 2.5998 2.5998 2.5998H6.1998C6.69686 2.5998 7.0998 3.00275 7.0998 3.4998C7.0998 3.99686 6.69686 4.3998 6.1998 4.3998H2.5998V13.3998H11.5998V9.7998C11.5998 9.30275 12.0027 8.8998 12.4998 8.8998C12.9969 8.8998 13.3998 9.30275 13.3998 9.7998V13.3998C13.3998 14.3939 12.5939 15.1998 11.5998 15.1998H2.5998C1.60569 15.1998 0.799805 14.3939 0.799805 13.3998V4.3998Z" fill="#012BFE"/>
</svg>
