<svg width="14" height="16" viewBox="0 0 14 16" fill="none" xmlns="http://www.w3.org/2000/svg">
<path fill-rule="evenodd" clip-rule="evenodd" d="M6.1002 0.799805C5.7593 0.799805 5.44766 0.992407 5.29521 1.29731L4.64397 2.5998H1.6002C1.10314 2.5998 0.700195 3.00275 0.700195 3.4998C0.700195 3.99686 1.10314 4.3998 1.6002 4.3998L1.6002 13.3998C1.6002 14.3939 2.40608 15.1998 3.4002 15.1998H10.6002C11.5943 15.1998 12.4002 14.3939 12.4002 13.3998V4.3998C12.8973 4.3998 13.3002 3.99686 13.3002 3.4998C13.3002 3.00275 12.8973 2.5998 12.4002 2.5998H9.35643L8.70518 1.29731C8.55273 0.992407 8.24109 0.799805 7.9002 0.799805H6.1002ZM4.3002 6.1998C4.3002 5.70275 4.70314 5.2998 5.2002 5.2998C5.69725 5.2998 6.1002 5.70275 6.1002 6.1998V11.5998C6.1002 12.0969 5.69725 12.4998 5.2002 12.4998C4.70314 12.4998 4.3002 12.0969 4.3002 11.5998V6.1998ZM8.8002 5.2998C8.30314 5.2998 7.9002 5.70275 7.9002 6.1998V11.5998C7.9002 12.0969 8.30314 12.4998 8.8002 12.4998C9.29725 12.4998 9.7002 12.0969 9.7002 11.5998V6.1998C9.7002 5.70275 9.29725 5.2998 8.8002 5.2998Z" fill="#D1293D"/>
</svg>
